<svg aria-hidden="true" style="width:0;height:0;position:absolute;overflow:hidden" xmlns="http://www.w3.org/2000/svg"><defs><symbol id="icon-stars" viewBox="0 0 202 32"><path fill="#ffe550" style="fill:var(--color1,#ffe550)" d="M15.42 1.038c.584-1.384 2.576-1.384 3.16 0L22.028 9.2c.246.582.804.98 1.444 1.032l8.952.706c1.516.12 2.132 1.982.976 2.958l-6.82 5.752a1.666 1.666 0 0 0-.55 1.682l-.002-.011 2.084 8.6c.352 1.456-1.258 2.608-2.556 1.828l-7.664-4.61a1.734 1.734 0 0 0-1.792.004l.008-.004-7.664 4.61c-1.3.78-2.908-.372-2.556-1.828l2.084-8.6a1.663 1.663 0 0 0-.55-1.667l-.003-.002-6.82-5.75c-1.156-.976-.54-2.84.976-2.96l8.952-.704a1.714 1.714 0 0 0 1.44-1.021l.004-.011 3.448-8.164zm42 0c.584-1.384 2.576-1.384 3.16 0L64.028 9.2c.246.582.804.98 1.444 1.032l8.952.706c1.516.12 2.132 1.982.976 2.958l-6.82 5.752a1.666 1.666 0 0 0-.55 1.682l-.002-.011 2.084 8.6c.352 1.456-1.258 2.608-2.556 1.828l-7.664-4.61a1.734 1.734 0 0 0-1.792.004l.008-.004-7.664 4.61c-1.3.78-2.908-.372-2.556-1.828l2.084-8.6a1.663 1.663 0 0 0-.55-1.668l-.003-.002-6.82-5.75c-1.156-.976-.54-2.84.976-2.96l8.952-.704a1.714 1.714 0 0 0 1.44-1.021l.004-.011 3.448-8.164zm42 0c.584-1.384 2.576-1.384 3.16 0l3.448 8.162c.246.582.804.98 1.444 1.032l8.952.706c1.516.12 2.132 1.982.976 2.958l-6.82 5.752a1.666 1.666 0 0 0-.55 1.682l-.002-.011 2.084 8.6c.352 1.456-1.258 2.608-2.556 1.828l-7.664-4.61a1.734 1.734 0 0 0-1.792.004l.008-.004-7.664 4.61c-1.3.78-2.908-.372-2.556-1.828l2.084-8.6a1.665 1.665 0 0 0-.547-1.668l-.003-.002-6.822-5.75c-1.158-.976-.542-2.84.974-2.96l8.952-.704a1.714 1.714 0 0 0 1.44-1.021l.004-.011 3.45-8.164zm42 0c.584-1.384 2.576-1.384 3.16 0l3.448 8.162c.248.582.804.98 1.444 1.032l8.952.706c1.516.12 2.132 1.982.976 2.958l-6.82 5.752a1.666 1.666 0 0 0-.55 1.682l-.002-.011 2.084 8.6c.352 1.456-1.258 2.608-2.556 1.828l-7.664-4.61a1.734 1.734 0 0 0-1.792.004l.008-.004-7.664 4.61c-1.3.78-2.908-.372-2.556-1.828l2.084-8.6a1.666 1.666 0 0 0-.55-1.668l-.003-.002-6.82-5.75c-1.156-.976-.54-2.84.976-2.96l8.952-.704a1.714 1.714 0 0 0 1.44-1.021l.004-.011 3.448-8.164zm42 0c.584-1.384 2.576-1.384 3.16 0l3.448 8.162c.248.582.804.98 1.444 1.032l8.952.706c1.516.12 2.132 1.982.976 2.958l-6.82 5.752a1.666 1.666 0 0 0-.55 1.682l-.002-.011 2.084 8.6c.352 1.456-1.258 2.608-2.556 1.828l-7.664-4.61a1.734 1.734 0 0 0-1.792.004l.008-.004-7.664 4.61c-1.3.78-2.908-.372-2.556-1.828l2.084-8.6a1.666 1.666 0 0 0-.55-1.668l-.003-.002-6.82-5.75c-1.156-.976-.54-2.84.976-2.96l8.952-.704a1.714 1.714 0 0 0 1.44-1.021l.004-.011 3.448-8.164z"/></symbol><symbol id="icon-roket" viewBox="0 0 32 32"><path fill="#fff" style="fill:var(--color2,#fff)" d="M32 16c0 8.837-7.163 16-16 16S0 24.837 0 16 7.163 0 16 0s16 7.163 16 16z"/><path fill="#7eb101" style="fill:var(--color3,#7eb101)" d="m9.489 14.422 2.356 1c.267-.533.552-1.059.856-1.578s.626-1.015.967-1.489l-1.756-.356-2.422 2.422zm3.422 1.8 2.956 2.956c.844-.385 1.637-.822 2.378-1.311s1.341-.963 1.8-1.422c1.2-1.2 2.081-2.43 2.644-3.689s.867-2.682.911-4.267c-1.585.044-3.007.348-4.267.911s-2.489 1.444-3.689 2.644c-.459.459-.933 1.059-1.422 1.8s-.926 1.533-1.311 2.378zM18 14.089c-.296-.296-.444-.663-.444-1.1s.148-.804.444-1.1c.296-.296.663-.444 1.1-.444s.804.148 1.1.444c.296.296.444.663.444 1.1s-.148.804-.444 1.1c-.296.296-.663.444-1.1.444s-.804-.148-1.1-.444zm-.333 8.511 2.422-2.422-.356-1.756c-.474.341-.97.663-1.489.967s-1.044.589-1.578.856l1 2.356zm7.244-15.422c.133 2.015-.119 3.852-.756 5.511s-1.689 3.222-3.156 4.689l-.089.089.489 2.444c.044.222.033.437-.033.644s-.181.393-.344.556l-3.8 3.822-1.889-4.4-3.778-3.778-4.4-1.889 3.822-3.8c.163-.163.348-.278.556-.344s.422-.078.644-.033l2.444.489c.015-.015.03-.026.044-.033s.03-.019.044-.033c1.467-1.467 3.03-2.522 4.689-3.167s3.496-.9 5.511-.767zM8.644 19.444c.518-.519 1.152-.781 1.9-.789s1.381.248 1.9.767c.518.518.774 1.152.767 1.9s-.27 1.381-.789 1.9c-.385.385-.981.704-1.789.956s-2.019.489-3.633.711c.222-1.615.456-2.83.7-3.644s.559-1.415.944-1.8zm.934.956c-.207.222-.393.57-.556 1.044s-.304 1.081-.422 1.822c.741-.118 1.348-.259 1.822-.422s.822-.348 1.044-.556c.281-.252.426-.567.433-.944s-.122-.707-.389-.989c-.282-.267-.611-.396-.989-.389s-.693.152-.944.433z"/></symbol><symbol id="icon-Order" viewBox="0 0 32 32"><path fill="#fff" style="fill:var(--color2,#fff)" d="M32 16c0 8.837-7.163 16-16 16S0 24.837 0 16 7.163 0 16 0s16 7.163 16 16z"/><path fill="#7eb101" style="fill:var(--color3,#7eb101)" d="M15.667 6.222c1.348 0 2.5.47 3.456 1.411s1.433 2.085 1.433 3.433c0 .77-.167 1.496-.5 2.178s-.804 1.259-1.411 1.733h-.756v-1.111c.43-.341.759-.756.989-1.244s.344-1.007.344-1.556c0-.978-.348-1.807-1.044-2.489s-1.533-1.022-2.511-1.022c-.978 0-1.815.341-2.511 1.022s-1.044 1.511-1.044 2.489c0 .548.115 1.067.344 1.556s.559.904.989 1.244v1.6c-.83-.43-1.481-1.037-1.956-1.822s-.711-1.644-.711-2.578c0-1.348.478-2.493 1.433-3.433s2.107-1.411 3.456-1.411zm-.845 18.667c-.252 0-.489-.048-.711-.144s-.415-.226-.578-.389l-4.578-4.578 1.244-1.289c.207-.207.441-.367.7-.478s.53-.13.811-.056l1.733.4v-7.244c0-.622.215-1.148.644-1.578s.956-.644 1.578-.644c.622 0 1.148.215 1.578.644s.644.956.644 1.578v3.822h.578c.074 0 .141.015.2.044s.126.059.2.089l3.289 1.6c.356.163.619.426.789.789s.219.737.144 1.122l-.8 4.844c-.074.43-.281.781-.622 1.056s-.726.411-1.156.411H14.82zm-.177-1.333h6.244l.956-5.533-4.067-2.022h-1.222v-4.889c0-.267-.081-.481-.244-.644s-.378-.244-.644-.244-.482.081-.644.244c-.163.163-.244.378-.244.644v8.867l-3.422-.733-.511.511 3.8 3.8zm6.244 0z"/></symbol><symbol id="icon-menu-close" viewBox="0 0 32 32"><path d="m17.45 14.826 4.928-4.924a1.012 1.012 0 0 0-1.43-1.428l-4.927 4.873-4.958-4.954a1.013 1.013 0 0 0-1.43 1.428l4.948 5.005-4.846 4.782a1.002 1.002 0 0 0-.284 1.139 1.014 1.014 0 0 0 1.714.29l4.836-4.833 4.806 4.802a1.013 1.013 0 0 0 1.43-1.428l-4.786-4.751z"/></symbol><symbol id="icon-menu-open" viewBox="0 0 32 32"><path d="M2.666 8A1.335 1.335 0 0 1 4 6.666h24A1.33 1.33 0 0 1 29.333 8 1.333 1.333 0 0 1 28 9.334H4A1.335 1.335 0 0 1 2.666 8zm0 8.043A1.33 1.33 0 0 1 4 14.71h24a1.333 1.333 0 1 1 0 2.666H4a1.333 1.333 0 0 1-1.334-1.333zM4 22.752a1.337 1.337 0 0 0-1.334 1.333A1.33 1.33 0 0 0 4 25.418h24a1.333 1.333 0 1 0 0-2.666H4z"/></symbol><symbol id="icon-arrow-next" viewBox="0 0 32 32"><path d="M24.586 15.035 9.725.875a1.334 1.334 0 0 0-1.84 0l-.016.016a1.222 1.222 0 0 0-.282 1.373c.065.153.162.291.282.405l13.995 13.333L7.869 29.33a1.212 1.212 0 0 0-.381.889 1.236 1.236 0 0 0 .381.889l.016.016a1.334 1.334 0 0 0 1.84 0l14.861-14.16a1.331 1.331 0 0 0 0-1.93z"/></symbol><symbol id="icon-arrow-prev" viewBox="0 0 32 32"><path d="m7.414 16.965 14.861 14.16a1.334 1.334 0 0 0 1.84 0l.016-.016a1.237 1.237 0 0 0 .382-.889 1.22 1.22 0 0 0-.382-.889L10.136 15.998 24.131 2.67a1.222 1.222 0 0 0 .282-1.373 1.231 1.231 0 0 0-.282-.405l-.016-.016a1.336 1.336 0 0 0-1.84 0L7.414 15.036a1.331 1.331 0 0 0 0 1.93z"/></symbol><symbol id="icon-icon-menu-closee" viewBox="0 0 32 32"><path d="M19.141 16.123 29.818 5.456a2.195 2.195 0 0 0-3.101-3.094l.002-.002-10.675 10.56L5.297 2.181a2.197 2.197 0 0 0-3.093 3.096l-.003-.003 10.72 10.845L2.422 26.482a2.191 2.191 0 0 0 2.399 3.64l-.012.006c.28-.138.517-.323.71-.546l.002-.003L15.998 19.11l10.413 10.403a2.2 2.2 0 0 0 3.093-3.097l.003.004-10.368-10.296z"/></symbol><symbol id="icon-more1" viewBox="0 0 19 32"><path d="M17.903 15.592a1.264 1.264 0 0 1 0 1.788L5.015 30.268a1.264 1.264 0 0 1-1.788 0l-.596-.596a1.264 1.264 0 0 1 0-1.788L14.03 16.486 2.631 5.087a1.264 1.264 0 0 1 0-1.788l.596-.596a1.264 1.264 0 0 1 1.788 0l12.888 12.888z"/></symbol></defs></svg>